<svg width="32" height="32" viewBox="0 0 32 32" fill="none" xmlns="http://www.w3.org/2000/svg">
  <!-- Background -->
  <rect width="32" height="32" rx="6" fill="#D1FAE5"/>

  <!-- Book Icon -->
  <path d="M8 8C8 7.46957 8.21071 6.96086 8.58579 6.58579C8.96086 6.21071 9.46957 6 10 6H14C14.5304 6 15.0391 6.21071 15.4142 6.58579C15.7893 6.96086 16 7.46957 16 8V24C16 24.5304 15.7893 25.0391 15.4142 25.4142C15.0391 25.7893 14.5304 26 14 26H10C9.46957 26 8.96086 25.7893 8.58579 25.4142C8.21071 25.0391 8 24.5304 8 24V8Z" stroke="#059669" stroke-width="2" stroke-linecap="round" stroke-linejoin="round"/>
  <path d="M16 8C16 7.46957 16.2107 6.96086 16.5858 6.58579C16.9609 6.21071 17.4696 6 18 6H22C22.5304 6 23.0391 6.21071 23.4142 6.58579C23.7893 6.96086 24 7.46957 24 8V24C24 24.5304 23.7893 25.0391 23.4142 25.4142C23.0391 25.7893 22.5304 26 22 26H18C17.4696 26 16.9609 25.7893 16.5858 25.4142C16.2107 25.0391 16 24.5304 16 24V8Z" stroke="#059669" stroke-width="2" stroke-linecap="round" stroke-linejoin="round"/>
</svg>
