<svg width="512" height="512" viewBox="0 0 512 512" fill="none" xmlns="http://www.w3.org/2000/svg">
  <!-- Background with rounded corners -->
  <rect width="512" height="512" rx="96" fill="#D1FAE5"/>

  <!-- Book Icon (centered and scaled) -->
  <g transform="translate(128, 128)">
    <path d="M0 32C0 23.5131 3.37142 15.3737 9.37258 9.37258C15.3737 3.37142 23.5131 0 32 0H96C104.487 0 112.626 3.37142 118.627 9.37258C124.629 15.3737 128 23.5131 128 32V224C128 232.487 124.629 240.626 118.627 246.627C112.626 252.629 104.487 256 96 256H32C23.5131 256 15.3737 252.629 9.37258 246.627C3.37142 240.626 0 232.487 0 224V32Z" stroke="#059669" stroke-width="24" stroke-linecap="round" stroke-linejoin="round"/>
    <path d="M128 32C128 23.5131 131.371 15.3737 137.373 9.37258C143.374 3.37142 151.513 0 160 0H224C232.487 0 240.626 3.37142 246.627 9.37258C252.629 15.3737 256 23.5131 256 32V224C256 232.487 252.629 240.626 246.627 246.627C240.626 252.629 232.487 256 224 256H160C151.513 256 143.374 252.629 137.373 246.627C131.371 240.626 128 232.487 128 224V32Z" stroke="#059669" stroke-width="24" stroke-linecap="round" stroke-linejoin="round"/>
  </g>
</svg>
